<svg width="64" height="64" viewBox="0 0 64 64" fill="none" xmlns="http://www.w3.org/2000/svg">
  <rect width="64" height="64" rx="12" fill="#000000"/>
  <path d="M32 8C36.4 8 40 11.6 40 16V20C40 24.4 36.4 28 32 28C27.6 28 24 24.4 24 20V16C24 11.6 27.6 8 32 8Z" fill="#FFFFFF"/>
  <path d="M32 28C36.4 28 40 31.6 40 36V40C40 44.4 36.4 48 32 48C27.6 48 24 44.4 24 40V36C24 31.6 27.6 28 32 28Z" fill="#FFFFFF"/>
  <path d="M32 48C36.4 48 40 51.6 40 56C40 58.2 38.2 60 36 60H28C25.8 60 24 58.2 24 56C24 51.6 27.6 48 32 48Z" fill="#FFFFFF"/>
</svg>
